<?xml version="1.0" encoding="UTF-8"?>
<svg version="1.1" xmlns="http://www.w3.org/2000/svg" width="56" height="55">
<path d="M0 0 C18.48 0 36.96 0 56 0 C56 18.15 56 36.3 56 55 C37.52 55 19.04 55 0 55 C0 36.85 0 18.7 0 0 Z " fill="#018235" transform="translate(0,0)"/>
<path d="M0 0 C-0.33 1.65 -0.66 3.3 -1 5 C-2.98 5 -4.96 5 -7 5 C-7 5.66 -7 6.32 -7 7 C-5.68 7 -4.36 7 -3 7 C-3 7.66 -3 8.32 -3 9 C-4.65 9 -6.3 9 -8 9 C-8.33 16.59 -8.66 24.18 -9 32 C-9.33 30.68 -9.66 29.36 -10 28 C-10.969375 27.87625 -11.93875 27.7525 -12.9375 27.625 C-14.4534375 27.315625 -14.4534375 27.315625 -16 27 C-17.32229189 24.35541621 -17.09677194 22.32238699 -17.0625 19.375 C-17.05347656 18.37210938 -17.04445313 17.36921875 -17.03515625 16.3359375 C-17.02355469 15.56507812 -17.01195313 14.79421875 -17 14 C-15.0625 14.375 -15.0625 14.375 -13 15 C-11.73762269 17.52475462 -11.90143596 19.31200466 -11.9375 22.125 C-11.94652344 23.03507812 -11.95554687 23.94515625 -11.96484375 24.8828125 C-11.98224609 25.93082031 -11.98224609 25.93082031 -12 27 C-11.34 27 -10.68 27 -10 27 C-10.02356567 25.87972412 -10.02356567 25.87972412 -10.04760742 24.73681641 C-10.10981077 21.36628739 -10.1489442 17.99587888 -10.1875 14.625 C-10.21263672 13.449375 -10.23777344 12.27375 -10.26367188 11.0625 C-10.27817383 9.38027344 -10.27817383 9.38027344 -10.29296875 7.6640625 C-10.3086792 6.62717285 -10.32438965 5.5902832 -10.34057617 4.52197266 C-10.22818604 3.68972168 -10.1157959 2.8574707 -10 2 C-6.3558226 -0.4294516 -4.28758728 -0.16179575 0 0 Z " fill="#3C8F1D" transform="translate(35,12)"/>
<path d="M0 0 C-0.33 1.65 -0.66 3.3 -1 5 C-2.98 5 -4.96 5 -7 5 C-7 5.66 -7 6.32 -7 7 C-5.68 7 -4.36 7 -3 7 C-3 7.66 -3 8.32 -3 9 C-4.65 9 -6.3 9 -8 9 C-8 10.32 -8 11.64 -8 13 C-8.66 13 -9.32 13 -10 13 C-10.08086147 11.20906809 -10.13912702 9.41710372 -10.1875 7.625 C-10.22230469 6.62726562 -10.25710937 5.62953125 -10.29296875 4.6015625 C-10.14794922 3.31378906 -10.14794922 3.31378906 -10 2 C-6.3558226 -0.4294516 -4.28758728 -0.16179575 0 0 Z " fill="#D7B93A" transform="translate(35,12)"/>
<path d="M0 0 C2.1640625 -0.29296875 2.1640625 -0.29296875 4.625 -0.1875 C5.44226562 -0.16042969 6.25953125 -0.13335938 7.1015625 -0.10546875 C8.04128906 -0.05326172 8.04128906 -0.05326172 9 0 C9 0.33 9 0.66 9 1 C7.02 1 5.04 1 3 1 C3 1.66 3 2.32 3 3 C4.65 3 6.3 3 8 3 C8 3.66 8 4.32 8 5 C7.01 5.33 6.02 5.66 5 6 C5.33 6.66 5.66 7.32 6 8 C4.02 8 2.04 8 0 8 C0 9.32 0 10.64 0 12 C-0.66 12 -1.32 12 -2 12 C-2.05422947 10.5629191 -2.09289723 9.12524538 -2.125 7.6875 C-2.14820312 6.88699219 -2.17140625 6.08648437 -2.1953125 5.26171875 C-2 3 -2 3 0 0 Z " fill="#D5B83A" transform="translate(30,23)"/>
<path d="M0 0 C0.36334661 7.38804781 0.36334661 7.38804781 -1.1875 10 C-3 11 -3 11 -8 11 C-8 7.7 -8 4.4 -8 1 C-7.67 1 -7.34 1 -7 1 C-7 3.64 -7 6.28 -7 9 C-6.34 9 -5.68 9 -5 9 C-5.061875 8.071875 -5.12375 7.14375 -5.1875 6.1875 C-5 3 -5 3 -3.625 1.125 C-2 0 -2 0 0 0 Z " fill="#398E1F" transform="translate(37,34)"/>
<path d="M0 0 C0.99 0.33 1.98 0.66 3 1 C3 6.94 3 12.88 3 19 C1.68 19.33 0.36 19.66 -1 20 C-0.67 13.4 -0.34 6.8 0 0 Z " fill="#0E8530" transform="translate(26,25)"/>
</svg>
